<svg width="72" height="48" viewBox="0 0 72 48" fill="none" xmlns="http://www.w3.org/2000/svg">
<path d="M16.2593 41.7463H53.7407C59.95 41.7463 65 36.7259 65 30.5528C65 27.0407 63.3897 23.7986 60.5788 21.6615C60.2771 21.4329 60.058 21.1121 59.95 20.747C58.3333 15.1581 53.134 11.2523 47.3059 11.2523C46.2323 11.2523 45.162 11.3825 44.1266 11.6397C43.4119 11.8176 42.6624 11.5318 42.2431 10.9252C39.5244 6.97497 35.0429 4.61877 30.2533 4.61877C26.6135 4.61877 23.1293 5.97152 20.4455 8.42298C17.7775 10.8617 16.1196 14.1769 15.7766 17.7557C15.7162 18.3749 15.3383 18.9179 14.7761 19.1846C14.6014 19.2672 14.4235 19.3593 14.252 19.4545C14.1059 19.5371 13.9471 19.5974 13.782 19.6324C11.3268 20.1786 9.09719 21.5599 7.50278 23.516C5.8639 25.526 5 27.9616 5 30.5528C5 36.7259 10.0532 41.7463 16.2593 41.7463Z" fill="#E6E5EC"/>
</svg>
