<svg width="72" height="48" viewBox="0 0 72 48" fill="none" xmlns="http://www.w3.org/2000/svg">
<g clip-path="url(#clip0)">
<path d="M26.3961 29.9774C26.3961 22.8765 32.8206 17.1018 40.7142 17.1018C42.4201 17.1018 44.0741 17.3644 45.6469 17.8864C47.2782 16.2166 49.3959 15.0137 51.7374 14.3944C49.6521 10.1793 45.287 7.3843 40.471 7.3843C39.4462 7.3843 38.4279 7.50751 37.4387 7.75393C36.7091 7.9355 35.9437 7.64369 35.5156 7.02439C32.9179 3.25347 28.6371 1 24.0676 1C20.591 1 17.2636 2.29048 14.7016 4.63474C12.1526 6.96278 10.57 10.1274 10.2424 13.5481C10.1808 14.1804 9.79486 14.7348 9.22083 15.0072C9.0522 15.0883 8.88681 15.1726 8.72141 15.2633C8.56899 15.3476 8.41008 15.4092 8.24144 15.4449C5.90319 15.9669 3.77898 17.2801 2.25798 19.1445C0.69807 21.0608 -0.128906 23.3791 -0.128906 25.8498C-0.128906 31.7315 4.68379 36.5141 10.5991 36.5141H23.4806C23.8373 34.319 24.8394 32.2535 26.4058 30.5253C26.3993 30.3438 26.3961 30.1589 26.3961 29.9774Z" fill="#E6E5EC"/>
<path d="M65.3683 30.2789C64.4311 29.9385 63.9446 28.9041 64.2852 27.9671C64.5641 27.1954 64.7035 26.3945 64.7035 25.5807C64.7035 22.1535 62.2031 19.2223 58.6941 18.0648C57.6596 17.7243 56.5407 17.5363 55.37 17.5363C54.757 17.5363 54.1538 17.5914 53.5636 17.6887C51.154 18.0972 49.0038 19.3164 47.6061 21.1224C47.1002 21.7741 46.2213 22.0011 45.4656 21.6736C43.9803 21.0348 42.3815 20.7106 40.7146 20.7106C34.8122 20.7106 30.0092 24.8673 30.0092 29.9741C30.0092 30.3016 30.0287 30.6388 30.0708 30.9696C30.1422 31.5337 29.9411 32.0979 29.5292 32.4935C28.3358 33.6413 27.5283 35.029 27.165 36.5141C27.0223 37.0977 26.9478 37.6975 26.9478 38.3039C26.9478 38.9297 27.0256 39.5392 27.1715 40.1261C28.1444 44.0494 32.1853 47 37.011 47H61.4864C67.0353 47 71.5529 43.0994 71.5529 38.3039C71.5561 34.7891 69.1271 31.6407 65.3683 30.2789Z" fill="#E6E5EC"/>
</g>
<defs>
<clipPath id="clip0">
<rect width="72" height="48" fill="white"/>
</clipPath>
</defs>
</svg>
