<svg width="72" height="48" viewBox="0 0 72 48" fill="none" xmlns="http://www.w3.org/2000/svg">
<path d="M54.4598 13.8391C54.2325 13.6668 54.0674 13.4228 53.9861 13.1501C52.7682 8.93978 48.8513 5.99734 44.4607 5.99734C43.652 5.99734 42.8456 6.09543 42.0656 6.2892C41.5272 6.42317 40.9626 6.20787 40.6467 5.75095C38.5986 2.77503 35.2225 1 31.6143 1C28.8722 1 26.2474 2.01908 24.2256 3.86588C22.2157 5.7031 20.9667 8.20058 20.7083 10.899C20.6628 11.3655 20.3781 11.7746 19.9546 11.9755C19.823 12.0377 19.689 12.1071 19.5598 12.1789C19.4497 12.241 19.3301 12.2865 19.2057 12.3128C17.3561 12.7243 15.6764 13.7649 14.4753 15.2385C13.2407 16.7528 12.5898 18.5876 12.5898 20.5397C12.5898 25.1902 16.3942 28.9723 21.072 28.9723H49.3083C53.9861 28.9723 57.7905 25.1902 57.7905 20.5397C57.7905 17.8939 56.575 15.4514 54.4598 13.8391Z" fill="#E6E5EC"/>
<path d="M54.1041 34.7112C54.1041 33.9744 53.5083 33.3787 52.7713 33.3787H17.7732C17.0362 33.3787 16.4404 33.9744 16.4404 34.7112C16.4404 35.448 17.0362 36.0436 17.7732 36.0436H52.7713C53.5083 36.0436 54.1041 35.448 54.1041 34.7112Z" fill="#BDC6F5"/>
<path d="M50.8421 44.3351H15.844C15.107 44.3351 14.5112 44.9307 14.5112 45.6675C14.5112 46.4043 15.107 47 15.844 47H50.8421C51.5791 47 52.1748 46.4043 52.1748 45.6675C52.1748 44.9307 51.5791 44.3351 50.8421 44.3351Z" fill="#BDC6F5"/>
<path d="M23.7693 38.931C23.0323 38.931 22.4365 39.5267 22.4365 40.2635C22.4365 41.0003 23.0323 41.596 23.7693 41.596H36.5966C37.3335 41.596 37.9293 41.0003 37.9293 40.2635C37.9293 39.5267 37.3335 38.931 36.5966 38.931H23.7693Z" fill="#BDC6F5"/>
<path d="M56.9174 38.931H44.0901C43.3531 38.931 42.7573 39.5267 42.7573 40.2635C42.7573 41.0003 43.3531 41.596 44.0901 41.596H56.9174C57.6543 41.596 58.2501 41.0003 58.2501 40.2635C58.2501 39.5267 57.6519 38.931 56.9174 38.931Z" fill="#BDC6F5"/>
</svg>
