<svg width="72" height="48" viewBox="0 0 72 48" fill="none" xmlns="http://www.w3.org/2000/svg">
<path d="M52.2355 35.5987C48.5838 35.5575 45.0435 34.3359 42.1434 32.1163C39.2434 29.8968 37.1394 26.7985 36.1457 23.2843C35.152 19.7702 35.322 16.0288 36.6304 12.6193C37.9387 9.2098 40.3151 6.31511 43.4045 4.36775C41.8434 3.96195 40.2374 3.75472 38.6245 3.75098C33.4198 3.75098 28.4282 5.81855 24.7479 9.49886C21.0676 13.1792 19 18.1707 19 23.3755C19 28.5802 21.0676 33.5718 24.7479 37.2521C28.4282 40.9324 33.4198 43 38.6245 43C41.573 42.9973 44.482 42.3216 47.1298 41.0245C49.7776 39.7273 52.0944 37.8428 53.9036 35.5146C53.3493 35.5709 52.7926 35.599 52.2355 35.5987Z" fill="#A2B0D6"/>
</svg>
