<svg width="72" height="48" viewBox="0 0 72 48" fill="none" xmlns="http://www.w3.org/2000/svg">
<g clip-path="url(#clip0)">
<path d="M19.6519 15.2436C19.6519 16.7725 20.2166 18.2136 21.2229 19.3252C22.2666 18.541 23.4553 17.9544 24.7187 17.6139C25.1582 14.8218 26.5314 12.2603 28.6386 10.3359C28.7375 10.2458 28.8386 10.158 28.9396 10.0701C27.9882 9.47915 26.8874 9.16061 25.736 9.16061C22.383 9.16061 19.6519 11.889 19.6519 15.2436Z" fill="#FB6C54"/>
<path d="M58.0551 21.3001C57.8464 21.142 57.6948 20.9179 57.62 20.6674C56.5016 16.8011 52.9048 14.099 48.8728 14.099C48.1301 14.099 47.3897 14.1891 46.6734 14.367C46.179 14.4901 45.6604 14.2923 45.3704 13.8728C43.4895 11.1399 40.3892 9.50992 37.0758 9.50992C34.5577 9.50992 32.1474 10.4457 30.2907 12.1417C28.445 13.8288 27.298 16.1223 27.0607 18.6003C27.019 19.0286 26.7575 19.4043 26.3686 19.5888C26.2477 19.6459 26.1247 19.7096 26.0061 19.7755C25.905 19.8327 25.7951 19.8744 25.6809 19.8986C23.9824 20.2764 22.4399 21.232 21.3369 22.5853C20.2031 23.9758 19.6055 25.6608 19.6055 27.4534C19.6055 31.7239 23.0991 35.1971 27.3947 35.1971H53.3244C57.62 35.1971 61.1137 31.7239 61.1137 27.4534C61.1137 25.0215 59.9997 22.7808 58.0551 21.3001Z" fill="#E6E5EC"/>
<path d="M30.8489 48C30.9675 48 31.0884 47.9824 31.207 47.9451C31.853 47.7474 32.2155 47.062 32.0178 46.4161L30.5434 41.6095C30.3457 40.9637 29.6602 40.6012 29.0142 40.7989C28.3682 40.9966 28.0056 41.682 28.2034 42.3279L29.6777 47.1345C29.8403 47.6617 30.3259 48 30.8489 48Z" fill="#BDC6F5"/>
<path d="M41.0969 48C41.2156 48 41.3364 47.9824 41.4551 47.9451C42.1011 47.7474 42.4636 47.062 42.2659 46.4161L40.7915 41.6095C40.5938 40.9637 39.9082 40.6012 39.2622 40.7989C38.6162 40.9966 38.2537 41.682 38.4514 42.3279L39.9258 47.1345C40.0884 47.6617 40.574 48 41.0969 48Z" fill="#BDC6F5"/>
<path d="M51.345 48C51.4636 48 51.5845 47.9824 51.7031 47.9451C52.3491 47.7474 52.7116 47.062 52.5139 46.4161L51.0395 41.6095C50.8418 40.9637 50.1563 40.6012 49.5103 40.7989C48.8643 40.9966 48.5017 41.682 48.6995 42.3279L50.1738 47.1345C50.3364 47.6617 50.822 48 51.345 48Z" fill="#BDC6F5"/>
<path d="M24.5142 1.2236V4.666C24.5142 5.34261 25.0613 5.88962 25.738 5.88962C26.4148 5.88962 26.9619 5.34261 26.9619 4.666V1.2236C26.9619 0.546991 26.4148 0 25.738 0C25.0613 0 24.5142 0.549188 24.5142 1.2236Z" fill="#FB6C54"/>
<path d="M20.4495 7.30872C20.656 7.30872 20.867 7.25599 21.0603 7.14396C21.6448 6.80565 21.8469 6.05874 21.5085 5.4722L19.7859 2.49114C19.4475 1.90679 18.7005 1.70469 18.1138 2.043C17.5293 2.3813 17.3272 3.12821 17.6656 3.71476L19.3882 6.69581C19.6145 7.08904 20.0254 7.30872 20.4495 7.30872Z" fill="#FB6C54"/>
<path d="M17.1889 8.89702L14.2073 7.17473C13.6228 6.83642 12.8736 7.03633 12.5352 7.62287C12.1968 8.20722 12.3968 8.95634 12.9834 9.29464L15.9651 11.0169C16.1584 11.129 16.3672 11.1817 16.5759 11.1817C16.9978 11.1817 17.4109 10.962 17.6372 10.5688C17.9734 9.98224 17.7734 9.23313 17.1889 8.89702Z" fill="#FB6C54"/>
<path d="M16.3825 15.2435C16.3825 14.5669 15.8354 14.0199 15.1587 14.0199H11.7156C11.0388 14.0199 10.4917 14.5669 10.4917 15.2435C10.4917 15.9202 11.0388 16.4672 11.7156 16.4672H15.1587C15.8354 16.4672 16.3825 15.9202 16.3825 15.2435Z" fill="#FB6C54"/>
<path d="M17.1885 21.5923C17.7729 21.254 17.9751 20.5071 17.6367 19.9206C17.2983 19.3362 16.5513 19.1341 15.9646 19.4724L12.9829 21.1947C12.3985 21.533 12.1963 22.2799 12.5347 22.8665C12.761 23.2597 13.1719 23.4794 13.596 23.4794C13.8025 23.4794 14.0134 23.4267 14.2068 23.3146L17.1885 21.5923Z" fill="#FB6C54"/>
<path d="M30.4165 7.14399C30.6099 7.25603 30.8186 7.30875 31.0274 7.30875C31.4492 7.30875 31.8623 7.08907 32.0886 6.69585L33.8113 3.71478C34.1496 3.13043 33.9497 2.38132 33.363 2.04302C32.7786 1.70471 32.0293 1.90461 31.6909 2.49116L29.9683 5.47223C29.6299 6.05658 29.8321 6.80568 30.4165 7.14399Z" fill="#FB6C54"/>
</g>
<defs>
<clipPath id="clip0">
<rect width="72" height="48" fill="white"/>
</clipPath>
</defs>
</svg>
