<svg width="72" height="48" viewBox="0 0 72 48" fill="none" xmlns="http://www.w3.org/2000/svg">
<path d="M25.9883 39.0958C25.4064 39.0958 24.9366 39.5676 24.9366 40.1473V41.7679L23.2141 41.3003C22.6533 41.148 22.0756 41.4802 21.9232 42.0408C21.7709 42.6015 22.1031 43.1791 22.6639 43.3314L24.3208 43.7799L23.3178 45.3244C23.0025 45.811 23.14 46.4626 23.6267 46.78C23.8045 46.8942 24.0013 46.9492 24.1981 46.9492C24.543 46.9492 24.8795 46.78 25.0826 46.469L26.0031 45.0515L26.9998 46.5346C27.203 46.8371 27.5352 47 27.8738 47C28.0748 47 28.2801 46.9429 28.46 46.8202C28.9424 46.4965 29.0715 45.8427 28.7456 45.3603L27.6791 43.7715L29.3128 43.3293C29.8735 43.1769 30.2058 42.5994 30.0534 42.0387C29.9011 41.478 29.3233 41.1459 28.7626 41.2982L27.04 41.7658V40.1452C27.04 39.5655 26.5703 39.0958 25.9883 39.0958Z" fill="#BDC6F5"/>
<path d="M39.2671 39.0958C38.6852 39.0958 38.2154 39.5676 38.2154 40.1473V41.7679L36.4929 41.3003C35.9321 41.148 35.3544 41.4802 35.202 42.0408C35.0497 42.6015 35.3819 43.1791 35.9427 43.3314L37.5996 43.7799L36.5966 45.3244C36.2813 45.811 36.4188 46.4626 36.9055 46.78C37.0833 46.8942 37.2801 46.9492 37.4769 46.9492C37.8218 46.9492 38.1583 46.78 38.3614 46.469L39.2819 45.0515L40.2786 46.5346C40.4818 46.8371 40.814 47 41.1526 47C41.3536 47 41.5589 46.9429 41.7388 46.8202C42.2212 46.4965 42.3503 45.8427 42.0244 45.3603L40.9579 43.7715L42.5916 43.3293C43.1523 43.1769 43.4846 42.5994 43.3322 42.0387C43.1798 41.478 42.6021 41.1459 42.0414 41.2982L40.3188 41.7658V40.1452C40.3188 39.5655 39.8491 39.0958 39.2671 39.0958Z" fill="#BDC6F5"/>
<path d="M52.5464 39.0958C51.9645 39.0958 51.4947 39.5676 51.4947 40.1473V41.7679L49.7722 41.3003C49.2114 41.148 48.6337 41.4802 48.4813 42.0408C48.329 42.6015 48.6612 43.1791 49.222 43.3314L50.8789 43.7799L49.8759 45.3244C49.5606 45.811 49.6981 46.4626 50.1848 46.78C50.3626 46.8942 50.5594 46.9492 50.7562 46.9492C51.1011 46.9492 51.4376 46.78 51.6407 46.469L52.5612 45.0515L53.5579 46.5346C53.7611 46.8371 54.0933 47 54.4319 47C54.6329 47 54.8382 46.9429 55.0181 46.8202C55.5005 46.4965 55.6296 45.8427 55.3037 45.3603L54.2372 43.7715L55.8709 43.3293C56.4316 43.1769 56.7639 42.5994 56.6115 42.0387C56.4592 41.478 55.8814 41.1459 55.3207 41.2982L53.5981 41.7658V40.1452C53.5981 39.5655 53.1262 39.0958 52.5464 39.0958Z" fill="#BDC6F5"/>
<path d="M19.4209 15.6808C19.4209 17.1534 19.9647 18.5413 20.9339 19.6118C21.9391 18.8565 23.0839 18.2916 24.3007 17.9637C24.7239 15.2746 26.0465 12.8077 28.0759 10.9544C28.1711 10.8676 28.2685 10.783 28.3658 10.6984C27.4495 10.1292 26.3893 9.82245 25.2805 9.82245C22.0513 9.82245 19.4209 12.4502 19.4209 15.6808Z" fill="#FB6C54"/>
<path d="M56.4062 21.5138C56.2051 21.3615 56.0591 21.1457 55.9872 20.9045C54.9101 17.1809 51.446 14.5786 47.5629 14.5786C46.8476 14.5786 46.1345 14.6653 45.4446 14.8367C44.9685 14.9552 44.4691 14.7647 44.1897 14.3606C42.3783 11.7287 39.3925 10.1589 36.2013 10.1589C33.7763 10.1589 31.4549 11.0602 29.6667 12.6935C27.8892 14.3183 26.7846 16.5271 26.556 18.9136C26.5158 19.3262 26.264 19.688 25.8894 19.8657C25.773 19.9207 25.6545 19.9821 25.5403 20.0455C25.4429 20.1005 25.3371 20.1407 25.2271 20.164C23.5913 20.5279 22.1058 21.4482 21.0435 22.7515C19.9516 24.0908 19.376 25.7135 19.376 27.4399C19.376 31.5528 22.7406 34.8977 26.8777 34.8977H51.8501C55.9872 34.8977 59.3518 31.5528 59.3518 27.4399C59.3518 25.0978 58.279 22.9398 56.4062 21.5138Z" fill="#E6E5EC"/>
<path d="M24.1035 2.17843V5.49374C24.1035 6.14538 24.6304 6.67219 25.2822 6.67219C25.934 6.67219 26.4609 6.14538 26.4609 5.49374V2.17843C26.4609 1.5268 25.934 1 25.2822 1C24.6304 1 24.1035 1.52891 24.1035 2.17843Z" fill="#FB6C54"/>
<path d="M20.1888 8.0389C20.3877 8.0389 20.5909 7.98812 20.7771 7.88022C21.34 7.55441 21.5347 6.83507 21.2088 6.27018L19.5497 3.39917C19.2238 2.83639 18.5043 2.64175 17.9393 2.96757C17.3764 3.29339 17.1818 4.01273 17.5076 4.57762L19.1667 7.44863C19.3847 7.82734 19.7804 8.0389 20.1888 8.0389Z" fill="#FB6C54"/>
<path d="M17.0487 9.56858L14.1771 7.90987C13.6142 7.58405 12.8926 7.77657 12.5667 8.34146C12.2408 8.90424 12.4334 9.6257 12.9984 9.95152L15.87 11.6102C16.0562 11.7181 16.2572 11.7689 16.4583 11.7689C16.8646 11.7689 17.2624 11.5573 17.4804 11.1786C17.8041 10.6137 17.6116 9.89228 17.0487 9.56858Z" fill="#FB6C54"/>
<path d="M16.272 15.6808C16.272 15.0292 15.7451 14.5024 15.0933 14.5024H11.7773C11.1256 14.5024 10.5986 15.0292 10.5986 15.6808C10.5986 16.3325 11.1256 16.8593 11.7773 16.8593H15.0933C15.7451 16.8593 16.272 16.3325 16.272 15.6808Z" fill="#FB6C54"/>
<path d="M17.0487 21.7952C17.6116 21.4694 17.8063 20.75 17.4804 20.1851C17.1545 19.6224 16.435 19.4277 15.87 19.7535L12.9984 21.4122C12.4355 21.7381 12.2408 22.4574 12.5667 23.0223C12.7847 23.401 13.1804 23.6126 13.5888 23.6126C13.7877 23.6126 13.9909 23.5618 14.1771 23.4539L17.0487 21.7952Z" fill="#FB6C54"/>
<path d="M29.7875 7.88027C29.9737 7.98817 30.1747 8.03895 30.3758 8.03895C30.7821 8.03895 31.1799 7.82738 31.3979 7.44867L33.0569 4.57766C33.3828 4.01488 33.1902 3.29343 32.6252 2.96761C32.0623 2.64179 31.3407 2.83431 31.0148 3.39921L29.3558 6.27022C29.0299 6.833 29.2246 7.55445 29.7875 7.88027Z" fill="#FB6C54"/>
</svg>
