<svg width="72" height="48" viewBox="0 0 72 48" fill="none" xmlns="http://www.w3.org/2000/svg">
<g clip-path="url(#clip0)">
<path fill-rule="evenodd" clip-rule="evenodd" d="M27.6214 10.7624C27.3788 10.2901 27.1822 9.79234 27.0362 9.27567C26.5645 7.60693 26.6452 5.83031 27.2662 4.21125C27.8872 2.5922 29.0152 1.21761 30.4816 0.292882C29.7406 0.100183 28.9783 0.00177871 28.2127 0C25.7423 0 23.3731 0.981816 21.6262 2.72946C19.8793 4.4771 18.8979 6.84741 18.8979 9.31896C18.8979 11.7905 19.8793 14.1608 21.6262 15.9085C22.4402 16.7228 23.3893 17.3709 24.4208 17.8308C24.4541 15.0252 25.6828 12.5072 27.6214 10.7624Z" fill="#A2B0D6"/>
<path d="M57.5634 21.3001C57.3547 21.1419 57.2031 20.9178 57.1283 20.6674C56.0099 16.8011 52.4131 14.099 48.3811 14.099C47.6384 14.099 46.898 14.1891 46.1817 14.367C45.6873 14.49 45.1687 14.2923 44.8787 13.8727C42.9978 11.1399 39.8975 9.50989 36.5841 9.50989C34.066 9.50989 31.6557 10.4457 29.799 12.1416C27.9533 13.8288 26.8063 16.1222 26.569 18.6002C26.5273 19.0286 26.2658 19.4043 25.8769 19.5888C25.756 19.6459 25.633 19.7096 25.5144 19.7755C25.4133 19.8326 25.3034 19.8744 25.1892 19.8985C23.4907 20.2764 21.9482 21.232 20.8452 22.5852C19.7114 23.9758 19.1138 25.6607 19.1138 27.4533C19.1138 31.7239 22.6074 35.197 26.903 35.197H52.8327C57.1283 35.197 60.622 31.7239 60.622 27.4533C60.622 25.0215 59.508 22.7807 57.5634 21.3001Z" fill="#E6E5EC"/>
<path d="M26.3902 40C25.8082 40 25.3385 40.4718 25.3385 41.0515V42.6721L23.6159 42.2046C23.0551 42.0522 22.4774 42.3844 22.3251 42.9451C22.1727 43.5057 22.5049 44.0833 23.0657 44.2356L24.7227 44.6842L23.7196 46.2286C23.4043 46.7152 23.5419 47.3669 24.0286 47.6842C24.2063 47.7985 24.4031 47.8535 24.5999 47.8535C24.9448 47.8535 25.2813 47.6842 25.4845 47.3732L26.405 45.9557L27.4017 47.4388C27.6048 47.7413 27.9371 47.9042 28.2757 47.9042C28.4767 47.9042 28.6819 47.8471 28.8618 47.7244C29.3443 47.4007 29.4734 46.747 29.1475 46.2646L28.081 44.6757L29.7146 44.2335C30.2754 44.0812 30.6076 43.5036 30.4553 42.9429C30.3029 42.3823 29.7252 42.0501 29.1644 42.2024L27.4419 42.67V41.0494C27.4419 40.4697 26.9721 40 26.3902 40Z" fill="#BDC6F5"/>
<path d="M39.6685 40C39.0866 40 38.6168 40.4718 38.6168 41.0515V42.6721L36.8942 42.2046C36.3335 42.0522 35.7558 42.3844 35.6034 42.9451C35.451 43.5057 35.7833 44.0833 36.344 44.2356L38.001 44.6842L36.9979 46.2286C36.6826 46.7152 36.8202 47.3669 37.3069 47.6842C37.4846 47.7985 37.6814 47.8535 37.8782 47.8535C38.2232 47.8535 38.5596 47.6842 38.7628 47.3732L39.6833 45.9557L40.68 47.4388C40.8832 47.7413 41.2154 47.9042 41.554 47.9042C41.755 47.9042 41.9603 47.8471 42.1401 47.7244C42.6226 47.4007 42.7517 46.747 42.4258 46.2646L41.3593 44.6757L42.9929 44.2335C43.5537 44.0812 43.8859 43.5036 43.7336 42.9429C43.5812 42.3823 43.0035 42.0501 42.4427 42.2024L40.7202 42.67V41.0494C40.7202 40.4697 40.2504 40 39.6685 40Z" fill="#BDC6F5"/>
<path d="M52.9478 40C52.3659 40 51.8961 40.4718 51.8961 41.0515V42.6721L50.1735 42.2046C49.6128 42.0522 49.0351 42.3844 48.8827 42.9451C48.7303 43.5057 49.0626 44.0833 49.6233 44.2356L51.2803 44.6842L50.2772 46.2286C49.9619 46.7152 50.0995 47.3669 50.5862 47.6842C50.7639 47.7985 50.9607 47.8535 51.1575 47.8535C51.5025 47.8535 51.8389 47.6842 52.0421 47.3732L52.9626 45.9557L53.9593 47.4388C54.1625 47.7413 54.4947 47.9042 54.8333 47.9042C55.0343 47.9042 55.2396 47.8471 55.4194 47.7244C55.9019 47.4007 56.031 46.747 55.7051 46.2646L54.6386 44.6757L56.2722 44.2335C56.833 44.0812 57.1652 43.5036 57.0129 42.9429C56.8605 42.3823 56.2828 42.0501 55.722 42.2024L53.9995 42.67V41.0494C53.9995 40.4697 53.5276 40 52.9478 40Z" fill="#BDC6F5"/>
</g>
<defs>
<clipPath id="clip0">
<rect width="72" height="48" fill="white"/>
</clipPath>
</defs>
</svg>
