<svg width="72" height="48" viewBox="0 0 72 48" fill="none" xmlns="http://www.w3.org/2000/svg">
<g clip-path="url(#clip0)">
<path d="M65.932 29.0779C65.647 28.862 65.4401 28.5591 65.3381 28.2142C63.8113 22.9361 58.901 19.2473 53.3968 19.2473C52.3829 19.2473 51.372 19.3703 50.3942 19.6132C49.7193 19.7812 49.0114 19.5113 48.6154 18.9385C46.0478 15.2077 41.8154 12.9825 37.292 12.9825C33.8545 12.9825 30.564 14.2601 28.0293 16.5753C25.5097 18.8785 23.9439 22.0094 23.6199 25.3892C23.563 25.974 23.206 26.4868 22.6751 26.7388C22.5101 26.8167 22.3421 26.9037 22.1802 26.9937C22.0422 27.0716 21.8922 27.1286 21.7362 27.1616C19.4175 27.6774 17.3118 28.982 15.8061 30.8293C14.2583 32.7277 13.4424 35.0279 13.4424 37.475C13.4424 43.305 18.2117 48.0464 24.0759 48.0464H59.4739C65.3381 48.0464 70.1074 43.305 70.1074 37.475C70.1074 34.1582 68.5866 31.0962 65.932 29.0779Z" fill="#E6E5EC"/>
<path d="M13.5054 20.8098C13.5054 22.8971 14.2763 24.8644 15.6501 26.3819C17.0749 25.3113 18.6976 24.5105 20.4224 24.0457C21.0223 20.234 22.8971 16.7372 25.7737 14.1101C25.9086 13.9872 26.0466 13.8672 26.1846 13.7472C24.8828 12.9405 23.383 12.5057 21.8112 12.5057C17.2338 12.5027 13.5054 16.2304 13.5054 20.8098Z" fill="#FB6C54"/>
<path d="M21.8138 8.04022C22.7377 8.04022 23.4846 7.29348 23.4846 6.3698V1.67042C23.4846 0.746742 22.7377 0 21.8138 0C20.89 0 20.1431 0.746742 20.1431 1.67042V6.3698C20.1431 7.29348 20.89 8.04022 21.8138 8.04022Z" fill="#FB6C54"/>
<path d="M13.145 9.14083C13.454 9.67764 14.0149 9.97754 14.5938 9.97754C14.8758 9.97754 15.1637 9.90556 15.4277 9.75262C16.2256 9.29078 16.5016 8.27113 16.0396 7.47041L13.6879 3.40081C13.226 2.60309 12.2061 2.32719 11.4053 2.78903C10.6074 3.25087 10.3314 4.27051 10.7933 5.07124L13.145 9.14083Z" fill="#FB6C54"/>
<path d="M4.39855 12.6856L8.46897 15.0368C8.73293 15.1898 9.01789 15.2617 9.30285 15.2617C9.87876 15.2617 10.4427 14.9618 10.7516 14.425C11.2136 13.6273 10.9406 12.6046 10.1397 12.1428L6.06931 9.79162C5.27143 9.32978 4.24857 9.60268 3.78664 10.4034C3.32771 11.2041 3.60067 12.2268 4.39855 12.6856Z" fill="#FB6C54"/>
<path d="M2.67077 22.4802H7.37111C8.29498 22.4802 9.04188 21.7335 9.04188 20.8098C9.04188 19.8861 8.29498 19.1394 7.37111 19.1394H2.67077C1.7469 19.1394 1 19.8861 1 20.8098C1 21.7335 1.7469 22.4802 2.67077 22.4802Z" fill="#FB6C54"/>
<path d="M10.7515 27.1946C10.2896 26.3969 9.26973 26.121 8.46885 26.5828L4.39842 28.934C3.60054 29.3958 3.32457 30.4155 3.78651 31.2162C4.09546 31.753 4.65639 32.0529 5.23531 32.0529C5.51727 32.0529 5.80523 31.9809 6.06919 31.828L10.1396 29.4768C10.9405 29.015 11.2135 27.9953 10.7515 27.1946Z" fill="#FB6C54"/>
<path d="M28.2002 9.75263C28.4641 9.90558 28.7491 9.97755 29.0341 9.97755C29.61 9.97755 30.1739 9.67766 30.4829 9.14084L32.8345 5.07125C33.2965 4.27353 33.0235 3.25088 32.2226 2.78904C31.4247 2.3272 30.4019 2.60011 29.9399 3.40083L27.5883 7.47042C27.1263 8.26814 27.4023 9.29079 28.2002 9.75263Z" fill="#FB6C54"/>
</g>
<defs>
<clipPath id="clip0">
<rect width="72" height="48" fill="white"/>
</clipPath>
</defs>
</svg>
