<svg width="72" height="48" viewBox="0 0 72 48" fill="none" xmlns="http://www.w3.org/2000/svg">
<g clip-path="url(#clip0)">
<path fill-rule="evenodd" clip-rule="evenodd" d="M21.6374 15.5911C21.2858 14.9069 21.0011 14.1858 20.7895 13.4373C20.1063 11.0199 20.2232 8.44614 21.1228 6.10068C22.0224 3.75521 23.6564 1.76391 25.7807 0.424286C24.7073 0.145131 23.603 0.00257675 22.494 0C18.9152 0 15.4829 1.42232 12.9523 3.95406C10.4217 6.4858 9 9.91958 9 13.5C9 17.0804 10.4217 20.5142 12.9523 23.0459C14.1315 24.2257 15.5066 25.1646 17.001 25.8309C17.0491 21.7665 18.8291 18.1187 21.6374 15.5911Z" fill="#A2B0D6"/>
<path d="M61.932 29.078C61.647 28.8621 61.4401 28.5592 61.3381 28.2143C59.8113 22.9361 54.901 19.2474 49.3968 19.2474C48.3829 19.2474 47.372 19.3703 46.3942 19.6133C45.7193 19.7812 45.0114 19.5113 44.6154 18.9385C42.0478 15.2078 37.8154 12.9825 33.292 12.9825C29.8545 12.9825 26.564 14.2601 24.0293 16.5753C21.5097 18.8785 19.9439 22.0094 19.6199 25.3893C19.563 25.9741 19.206 26.4869 18.6751 26.7388C18.5101 26.8168 18.3421 26.9037 18.1802 26.9937C18.0422 27.0717 17.8922 27.1287 17.7362 27.1616C15.4175 27.6775 13.3118 28.982 11.8061 30.8294C10.2583 32.7277 9.44238 35.0279 9.44238 37.4751C9.44238 43.3051 14.2117 48.0464 20.0759 48.0464H55.4739C61.3381 48.0464 66.1074 43.3051 66.1074 37.4751C66.1074 34.1582 64.5866 31.0963 61.932 29.078Z" fill="#E6E5EC"/>
</g>
<defs>
<clipPath id="clip0">
<rect width="72" height="48" fill="white"/>
</clipPath>
</defs>
</svg>
