<svg width="72" height="48" viewBox="0 0 72 48" fill="none" xmlns="http://www.w3.org/2000/svg">
<g clip-path="url(#clip0)">
<path fill-rule="evenodd" clip-rule="evenodd" d="M27.6214 10.7624C27.3788 10.2901 27.1822 9.79234 27.0362 9.27567C26.5645 7.60693 26.6452 5.83031 27.2662 4.21125C27.8872 2.5922 29.0152 1.21761 30.4816 0.292882C29.7406 0.100183 28.9783 0.00177871 28.2127 0C25.7423 0 23.3731 0.981816 21.6262 2.72946C19.8793 4.4771 18.8979 6.84741 18.8979 9.31896C18.8979 11.7905 19.8793 14.1608 21.6262 15.9085C22.4402 16.7228 23.3893 17.3709 24.4208 17.8308C24.4541 15.0252 25.6828 12.5072 27.6214 10.7624Z" fill="#A2B0D6"/>
<path d="M57.5634 21.3001C57.3547 21.1419 57.2031 20.9178 57.1283 20.6674C56.0099 16.8011 52.4131 14.099 48.3811 14.099C47.6384 14.099 46.898 14.1891 46.1817 14.367C45.6873 14.49 45.1687 14.2923 44.8787 13.8727C42.9978 11.1399 39.8975 9.50989 36.5841 9.50989C34.066 9.50989 31.6557 10.4457 29.799 12.1416C27.9533 13.8288 26.8063 16.1222 26.569 18.6002C26.5273 19.0286 26.2658 19.4043 25.8769 19.5888C25.756 19.6459 25.633 19.7096 25.5144 19.7755C25.4133 19.8326 25.3034 19.8744 25.1892 19.8985C23.4907 20.2764 21.9482 21.232 20.8452 22.5852C19.7114 23.9758 19.1138 25.6607 19.1138 27.4533C19.1138 31.7239 22.6074 35.197 26.903 35.197H52.8327C57.1283 35.197 60.622 31.7239 60.622 27.4533C60.622 25.0215 59.508 22.7807 57.5634 21.3001Z" fill="#E6E5EC"/>
<path d="M30.3572 47.9999C30.4758 47.9999 30.5967 47.9824 30.7153 47.945C31.3613 47.7473 31.7238 47.0619 31.5261 46.416L30.0517 41.6095C29.854 40.9636 29.1685 40.6011 28.5225 40.7988C27.8765 40.9966 27.5139 41.682 27.7117 42.3278L29.186 47.1344C29.3486 47.6616 29.8342 47.9999 30.3572 47.9999Z" fill="#BDC6F5"/>
<path d="M40.6052 47.9999C40.7239 47.9999 40.8447 47.9824 40.9634 47.945C41.6094 47.7473 41.9719 47.0619 41.7742 46.416L40.2998 41.6095C40.1021 40.9636 39.4165 40.6011 38.7705 40.7988C38.1245 40.9966 37.762 41.682 37.9597 42.3278L39.4341 47.1344C39.5967 47.6616 40.0823 47.9999 40.6052 47.9999Z" fill="#BDC6F5"/>
<path d="M50.8533 47.9999C50.9719 47.9999 51.0928 47.9824 51.2114 47.945C51.8574 47.7473 52.2199 47.0619 52.0222 46.416L50.5478 41.6095C50.3501 40.9636 49.6646 40.6011 49.0186 40.7988C48.3726 40.9966 48.01 41.682 48.2078 42.3278L49.6821 47.1344C49.8447 47.6616 50.3303 47.9999 50.8533 47.9999Z" fill="#BDC6F5"/>
</g>
<defs>
<clipPath id="clip0">
<rect width="72" height="48" fill="white"/>
</clipPath>
</defs>
</svg>
