<svg width="72" height="48" viewBox="0 0 72 48" fill="none" xmlns="http://www.w3.org/2000/svg">
<path d="M21.0306 32.9696H53.3049C58.6515 32.9696 63 28.6467 63 23.3312C63 20.307 61.6134 17.5153 59.1931 15.6751C58.9332 15.4782 58.7445 15.1993 58.6515 14.8876C57.2595 10.0752 52.7825 6.71198 47.764 6.71198C46.8396 6.71198 45.918 6.82409 45.0264 7.04557C44.411 7.19869 43.7656 6.9526 43.4046 6.43035C41.0636 3.02886 37.2046 1 33.0805 1C29.9463 1 26.9461 2.16482 24.6352 4.27571C22.3379 6.37567 20.9103 9.23029 20.6149 12.3146C20.5629 12.8478 20.2375 13.3154 19.7534 13.545C19.603 13.6161 19.4498 13.6954 19.3021 13.7775C19.1763 13.8486 19.0396 13.9005 18.8974 13.9306C16.7833 14.4009 14.8634 15.5903 13.4905 17.2746C12.0793 19.0055 11.3354 21.1027 11.3354 23.3339C11.3354 28.6467 15.6866 32.9696 21.0306 32.9696Z" fill="#E6E5EC"/>
<path d="M22.7316 37.8613C21.9276 38.1074 21.4763 38.9605 21.7225 39.7644L23.5576 45.747C23.7572 46.4033 24.3616 46.8244 25.0125 46.8244C25.1602 46.8244 25.3106 46.8025 25.4583 46.756C26.2623 46.5099 26.7136 45.6568 26.4675 44.8529L24.6324 38.8703C24.389 38.0664 23.5357 37.6152 22.7316 37.8613Z" fill="#BDC6F5"/>
<path d="M35.487 37.8613C34.6829 38.1074 34.2317 38.9605 34.4778 39.7644L36.3129 45.747C36.5126 46.4033 37.117 46.8244 37.7679 46.8244C37.9156 46.8244 38.066 46.8025 38.2137 46.756C39.0177 46.5099 39.469 45.6568 39.2228 44.8529L37.3877 38.8703C37.1443 38.0664 36.291 37.6152 35.487 37.8613Z" fill="#BDC6F5"/>
<path d="M48.2429 37.8613C47.4388 38.1074 46.9875 38.9605 47.2337 39.7644L49.0688 45.747C49.2684 46.4033 49.8728 46.8244 50.5238 46.8244C50.6714 46.8244 50.8218 46.8025 50.9695 46.756C51.7736 46.5099 52.2248 45.6568 51.9787 44.8529L50.1436 38.8703C49.9002 38.0664 49.0469 37.6152 48.2429 37.8613Z" fill="#BDC6F5"/>
</svg>
