<svg width="72" height="48" viewBox="0 0 72 48" fill="none" xmlns="http://www.w3.org/2000/svg">
<path d="M19.2349 33.5757H52.1209C57.569 33.5757 61.9998 29.1708 61.9998 23.7545C61.9998 20.673 60.587 17.8283 58.1207 15.9533C57.856 15.7527 57.6637 15.4685 57.569 15.1509C56.1505 10.2472 51.5887 6.82026 46.475 6.82026C45.5331 6.82026 44.594 6.93449 43.6855 7.16017C43.0585 7.3162 42.4009 7.06544 42.033 6.53329C39.6476 3.06732 35.7155 1 31.5132 1C28.3196 1 25.2625 2.1869 22.9078 4.33781C20.5669 6.47757 19.1123 9.38631 18.8113 12.5263C18.7583 13.0696 18.4267 13.546 17.9335 13.7801C17.7802 13.8525 17.6242 13.9333 17.4737 14.0169C17.3455 14.0893 17.2061 14.1423 17.0612 14.1729C14.9071 14.6521 12.9508 15.8641 11.5519 17.5804C10.1139 19.344 9.35596 21.481 9.35596 23.7545C9.35596 29.1708 13.7868 33.5757 19.2349 33.5757Z" fill="#E6E5EC"/>
<path d="M19.3851 40.0451C17.4483 40.0451 15.8794 41.6137 15.8794 43.5501C15.8794 45.4865 17.4483 47.0551 19.3851 47.0551C21.3219 47.0551 22.8908 45.4865 22.8908 43.5501C22.8908 41.6137 21.3219 40.0451 19.3851 40.0451Z" fill="#BDC6F5"/>
<path d="M35.473 47.0551C37.4091 47.0551 38.9787 45.4858 38.9787 43.5501C38.9787 41.6143 37.4091 40.0451 35.473 40.0451C33.5368 40.0451 31.9673 41.6143 31.9673 43.5501C31.9673 45.4858 33.5368 47.0551 35.473 47.0551Z" fill="#BDC6F5"/>
<path d="M50.6742 47.0551C52.6103 47.0551 54.1799 45.4858 54.1799 43.5501C54.1799 41.6143 52.6103 40.0451 50.6742 40.0451C48.738 40.0451 47.1685 41.6143 47.1685 43.5501C47.1685 45.4858 48.738 47.0551 50.6742 47.0551Z" fill="#BDC6F5"/>
</svg>
