<svg width="72" height="48" viewBox="0 0 72 48" fill="none" xmlns="http://www.w3.org/2000/svg">
<path d="M19.2349 33.5757H52.1209C57.569 33.5757 61.9998 29.1708 61.9998 23.7545C61.9998 20.673 60.587 17.8283 58.1207 15.9533C57.856 15.7527 57.6637 15.4685 57.569 15.1509C56.1505 10.2472 51.5887 6.82026 46.475 6.82026C45.5331 6.82026 44.594 6.93449 43.6855 7.16017C43.0585 7.3162 42.4009 7.06544 42.033 6.53329C39.6476 3.06732 35.7155 1 31.5132 1C28.3196 1 25.2625 2.1869 22.9078 4.33781C20.5669 6.47757 19.1123 9.38631 18.8113 12.5263C18.7583 13.0696 18.4267 13.546 17.9335 13.7801C17.7802 13.8525 17.6242 13.9333 17.4737 14.0169C17.3455 14.0893 17.2061 14.1423 17.0612 14.1729C14.9071 14.6521 12.9508 15.8641 11.5519 17.5804C10.1139 19.344 9.35596 21.481 9.35596 23.7545C9.35596 29.1708 13.7868 33.5757 19.2349 33.5757Z" fill="#E6E5EC"/>
<path d="M35.5 37C34.8616 37 34.3463 37.5372 34.3463 38.1973V40.0426L32.4566 39.5102C31.8415 39.3367 31.2077 39.7149 31.0406 40.3533C30.8734 40.9917 31.2379 41.6494 31.8531 41.8228L33.6707 42.3335L32.5704 44.0921C32.2245 44.6461 32.3754 45.3881 32.9093 45.7495C33.1043 45.8795 33.3202 45.9422 33.5361 45.9422C33.9145 45.9422 34.2836 45.7495 34.5064 45.3953L35.5163 43.7813L36.6096 45.47C36.8325 45.8145 37.197 46 37.5684 46C37.7889 46 38.0141 45.935 38.2114 45.7952C38.7407 45.4267 38.8823 44.6823 38.5248 44.133L37.3548 42.3239L39.1469 41.8204C39.7621 41.6469 40.1266 40.9893 39.9594 40.3509C39.7923 39.7125 39.1585 39.3343 38.5434 39.5078L36.6537 40.0402V38.1949C36.6537 37.5348 36.1361 37 35.5 37Z" fill="#BDC6F5"/>
<path d="M18.5 37C17.8616 37 17.3463 37.5372 17.3463 38.1973V40.0426L15.4566 39.5102C14.8415 39.3367 14.2077 39.7149 14.0406 40.3533C13.8734 40.9917 14.2379 41.6494 14.8531 41.8228L16.6707 42.3335L15.5704 44.0921C15.2245 44.6461 15.3754 45.3881 15.9093 45.7495C16.1043 45.8795 16.3202 45.9422 16.5361 45.9422C16.9145 45.9422 17.2836 45.7495 17.5064 45.3953L18.5163 43.7813L19.6096 45.47C19.8325 45.8145 20.197 46 20.5684 46C20.7889 46 21.0141 45.935 21.2114 45.7952C21.7407 45.4267 21.8823 44.6823 21.5248 44.133L20.3548 42.3239L22.1469 41.8204C22.7621 41.6469 23.1266 40.9893 22.9594 40.3509C22.7923 39.7125 22.1585 39.3343 21.5434 39.5078L19.6537 40.0402V38.1949C19.6537 37.5348 19.1361 37 18.5 37Z" fill="#BDC6F5"/>
<path d="M52.5 37C51.8616 37 51.3463 37.5372 51.3463 38.1973V40.0426L49.4566 39.5102C48.8415 39.3367 48.2077 39.7149 48.0406 40.3533C47.8734 40.9917 48.2379 41.6494 48.8531 41.8228L50.6707 42.3335L49.5704 44.0921C49.2245 44.6461 49.3754 45.3881 49.9093 45.7495C50.1043 45.8795 50.3202 45.9422 50.5361 45.9422C50.9145 45.9422 51.2836 45.7495 51.5064 45.3953L52.5163 43.7813L53.6096 45.47C53.8325 45.8145 54.197 46 54.5684 46C54.7889 46 55.0141 45.935 55.2114 45.7952C55.7407 45.4267 55.8823 44.6823 55.5248 44.133L54.3548 42.3239L56.1469 41.8204C56.7621 41.6469 57.1266 40.9893 56.9594 40.3509C56.7923 39.7125 56.1585 39.3343 55.5434 39.5078L53.6537 40.0402V38.1949C53.6537 37.5348 53.1361 37 52.5 37Z" fill="#BDC6F5"/>
</svg>
