<svg width="72" height="48" viewBox="0 0 72 48" fill="none" xmlns="http://www.w3.org/2000/svg">
<path d="M38.2387 35.7277C44.7162 34.4864 48.961 28.2287 47.7197 21.7509C46.4784 15.2731 40.2211 11.028 33.7436 12.2694C27.2662 13.5107 23.0214 19.7684 24.2627 26.2462C25.504 32.7241 31.7612 36.9691 38.2387 35.7277Z" fill="#FB6C54"/>
<path d="M34.728 6.65375C34.728 7.35654 35.2963 7.92471 35.9992 7.92471C36.7022 7.92471 37.2705 7.35654 37.2705 6.65375V1.27097C37.2705 0.568171 36.7022 0 35.9992 0C35.2963 0 34.728 0.568171 34.728 1.27097V6.65375Z" fill="#FB6C54"/>
<path d="M34.728 41.3463V46.729C34.728 47.4318 35.2963 48 35.9992 48C36.7022 48 37.2705 47.4318 37.2705 46.729V41.3463C37.2705 40.6435 36.7022 40.0753 35.9992 40.0753C35.2986 40.0753 34.728 40.6457 34.728 41.3463Z" fill="#FB6C54"/>
<path d="M27.3261 10.2476C27.5429 10.2476 27.7597 10.1928 27.9604 10.0764C28.5674 9.72504 28.7773 8.94923 28.4259 8.33999L25.7335 3.67829C25.3822 3.07133 24.6041 2.8614 23.9972 3.21279C23.3903 3.56419 23.1803 4.34 23.5317 4.94923L26.2241 9.61095C26.4614 10.0194 26.888 10.2476 27.3261 10.2476Z" fill="#FB6C54"/>
<path d="M44.0372 37.9213C43.4303 38.2727 43.2204 39.0485 43.5718 39.6577L46.2641 44.3195C46.4991 44.7279 46.9258 44.9561 47.3662 44.9561C47.5829 44.9561 47.7997 44.9013 48.0005 44.785C48.6074 44.4336 48.8173 43.6578 48.466 43.0485L45.7736 38.3868C45.4222 37.7798 44.6442 37.5722 44.0372 37.9213Z" fill="#FB6C54"/>
<path d="M15.2168 12C14.8654 12.607 15.0753 13.3851 15.6822 13.7365L20.3437 16.429C20.5445 16.5454 20.7613 16.6001 20.978 16.6001C21.4161 16.6001 21.8451 16.372 22.0801 15.9635C22.4315 15.3566 22.2216 14.5785 21.6146 14.2271L16.9531 11.5346C16.3439 11.1832 15.5659 11.3908 15.2168 12Z" fill="#FB6C54"/>
<path d="M56.3197 34.2658L51.6582 31.5733C51.0513 31.2219 50.2732 31.4295 49.9219 32.0388C49.5705 32.6457 49.7804 33.4238 50.3873 33.7752L55.0488 36.4677C55.2496 36.5841 55.4663 36.6388 55.6831 36.6388C56.1212 36.6388 56.5501 36.4107 56.7852 36.0022C57.1342 35.393 56.9266 34.6149 56.3197 34.2658Z" fill="#FB6C54"/>
<path d="M19.9243 24C19.9243 23.2972 19.3561 22.729 18.6534 22.729H13.2709C12.5681 22.729 12 23.2972 12 24C12 24.7028 12.5681 25.271 13.2709 25.271H18.6534C19.3539 25.271 19.9243 24.7028 19.9243 24Z" fill="#FB6C54"/>
<path d="M58.7295 22.729H53.3471C52.6443 22.729 52.0762 23.2972 52.0762 24C52.0762 24.7028 52.6443 25.271 53.3471 25.271H58.7295C59.4323 25.271 60.0004 24.7028 60.0004 24C60.0004 23.2972 59.43 22.729 58.7295 22.729Z" fill="#FB6C54"/>
<path d="M20.3437 31.5733L15.6822 34.2658C15.0753 34.6172 14.8654 35.393 15.2168 36.0022C15.4518 36.4107 15.8785 36.6388 16.3188 36.6388C16.5356 36.6388 16.7524 36.5841 16.9531 36.4677L21.6146 33.7752C22.2216 33.4238 22.4315 32.648 22.0801 32.0388C21.7287 31.4295 20.9507 31.2219 20.3437 31.5733Z" fill="#FB6C54"/>
<path d="M55.0488 11.5346L50.3873 14.2271C49.7804 14.5785 49.5705 15.3543 49.9219 15.9635C50.1569 16.372 50.5836 16.6001 51.0239 16.6001C51.2407 16.6001 51.4574 16.5454 51.6582 16.429L56.3197 13.7365C56.9266 13.3851 57.1365 12.6093 56.7851 12C56.4338 11.3908 55.6557 11.1832 55.0488 11.5346Z" fill="#FB6C54"/>
<path d="M26.227 38.3868L23.5347 43.0485C23.1833 43.6555 23.3932 44.4336 24.0001 44.785C24.2009 44.9013 24.4177 44.9561 24.6344 44.9561C25.0725 44.9561 25.5015 44.7279 25.7365 44.3195L28.4289 39.6577C28.7802 39.0508 28.5726 38.2727 27.9634 37.9213C27.3542 37.5722 26.5761 37.7798 26.227 38.3868Z" fill="#FB6C54"/>
<path d="M44.0367 10.0765C44.2375 10.1928 44.4543 10.2476 44.671 10.2476C45.1091 10.2476 45.5381 10.0194 45.7731 9.61099L48.4654 4.94925C48.8168 4.34229 48.6092 3.5642 48 3.2128C47.3931 2.8614 46.615 3.06906 46.2636 3.6783L43.5713 8.34002C43.2199 8.94926 43.4275 9.72735 44.0367 10.0765Z" fill="#FB6C54"/>
</svg>
