<svg width="72" height="48" viewBox="0 0 72 48" fill="none" xmlns="http://www.w3.org/2000/svg">
<path d="M11.6786 21.4549C11.2334 21.4549 10.8064 21.2777 10.4916 20.9623C10.1768 20.6469 10 20.2192 10 19.7732C10 19.3272 10.1768 18.8994 10.4916 18.584C10.8064 18.2687 11.2334 18.0915 11.6786 18.0915H31.8214C32.4348 18.0912 33.0363 17.9226 33.5607 17.604C34.0852 17.2853 34.5125 16.8289 34.7962 16.2841C35.08 15.7393 35.2093 15.1271 35.1703 14.5138C35.1312 13.9006 34.9252 13.3098 34.5746 12.8056C34.224 12.3014 33.7423 11.903 33.1817 11.6538C32.6211 11.4045 32.003 11.3139 31.3946 11.3918C30.7862 11.4696 30.2107 11.713 29.7306 12.0954C29.2506 12.4778 28.8842 12.9847 28.6714 13.561C28.5949 13.7681 28.4784 13.9581 28.3286 14.1201C28.1789 14.2822 27.9987 14.4131 27.7984 14.5053C27.5981 14.5976 27.3817 14.6494 27.1614 14.6579C26.9411 14.6664 26.7214 14.6313 26.5146 14.5547C26.3079 14.478 26.1182 14.3613 25.9565 14.2113C25.7948 14.0612 25.6641 13.8807 25.572 13.6801C25.4799 13.4794 25.4282 13.2626 25.4197 13.0419C25.4113 12.8212 25.4463 12.601 25.5228 12.3939C25.9484 11.241 26.6811 10.2269 27.6414 9.46187C28.6018 8.69681 29.753 8.20997 30.97 8.05422C32.187 7.89848 33.4234 8.07977 34.5448 8.57843C35.6663 9.07709 36.6299 9.87404 37.3311 10.8827C38.0323 11.8914 38.4442 13.0733 38.5222 14.3001C38.6001 15.5268 38.3411 16.7515 37.7732 17.8411C37.2053 18.9308 36.3504 19.8437 35.3011 20.4808C34.2518 21.1179 33.0484 21.4548 31.8214 21.4549H11.6786ZM38.5357 31.5451H15.0357C14.5905 31.5451 14.1636 31.7223 13.8488 32.0377C13.534 32.353 13.3571 32.7808 13.3571 33.2268C13.3571 33.6728 13.534 34.1006 13.8488 34.416C14.1636 34.7313 14.5905 34.9085 15.0357 34.9085H38.5357C39.1491 34.9088 39.7506 35.0774 40.275 35.396C40.7995 35.7147 41.2268 36.1711 41.5105 36.7159C41.7942 37.2607 41.9236 37.8729 41.8845 38.4862C41.8455 39.0994 41.6395 39.6902 41.2889 40.1944C40.9383 40.6986 40.4566 41.097 39.896 41.3462C39.3353 41.5955 38.7173 41.6861 38.1089 41.6082C37.5005 41.5304 36.925 41.287 36.4449 40.9046C35.9648 40.5222 35.5985 40.0153 35.3857 39.439C35.2312 39.0207 34.9172 38.681 34.5127 38.4947C34.3124 38.4024 34.096 38.3506 33.8757 38.3421C33.6554 38.3336 33.4356 38.3687 33.2289 38.4453C33.0222 38.522 32.8325 38.6387 32.6708 38.7887C32.5091 38.9388 32.3784 39.1193 32.2863 39.3199C32.1003 39.7252 32.0826 40.1878 32.2371 40.6061C32.6627 41.759 33.3954 42.7731 34.3557 43.5381C35.316 44.3032 36.4672 44.79 37.6843 44.9458C38.9013 45.1015 40.1377 44.9202 41.2591 44.4216C42.3806 43.9229 43.3442 43.126 44.0454 42.1173C44.7466 41.1086 45.1585 39.9267 45.2364 38.6999C45.3144 37.4732 45.0554 36.2485 44.4875 35.1589C43.9196 34.0692 43.0646 33.1563 42.0154 32.5192C40.9661 31.8821 39.7626 31.5452 38.5357 31.5451ZM50.2857 14.7281C48.9145 14.7317 47.5771 15.1541 46.4517 15.9389C45.3263 16.7237 44.4666 17.8337 43.9871 19.1207C43.9106 19.3278 43.8756 19.548 43.884 19.7687C43.8925 19.9894 43.9442 20.2062 44.0363 20.4069C44.1284 20.6075 44.2591 20.788 44.4208 20.9381C44.5825 21.0882 44.7722 21.2048 44.9789 21.2815C45.1856 21.3581 45.4054 21.3932 45.6257 21.3847C45.846 21.3763 46.0624 21.3244 46.2627 21.2321C46.463 21.1399 46.6432 21.009 46.7929 20.8469C46.9427 20.6849 47.0592 20.4949 47.1357 20.2878C47.3484 19.7112 47.7147 19.2041 48.1949 18.8215C48.6751 18.4389 49.2507 18.1953 49.8593 18.1174C50.4678 18.0394 51.0861 18.13 51.6469 18.3793C52.2077 18.6286 52.6896 19.0271 53.0403 19.5314C53.391 20.0358 53.597 20.6268 53.6361 21.2402C53.6751 21.8536 53.5457 22.4661 53.2617 23.011C52.9778 23.5559 52.5503 24.0124 52.0257 24.331C51.501 24.6497 50.8992 24.8182 50.2857 24.8183H13.3571C12.912 24.8183 12.485 24.9955 12.1702 25.3109C11.8554 25.6262 11.6786 26.054 11.6786 26.5C11.6786 26.946 11.8554 27.3738 12.1702 27.6891C12.485 28.0045 12.912 28.1817 13.3571 28.1817H50.2857C52.0665 28.1817 53.7743 27.473 55.0334 26.2115C56.2926 24.9499 57 23.2389 57 21.4549C57 19.6708 56.2926 17.9598 55.0334 16.6983C53.7743 15.4368 52.0665 14.7281 50.2857 14.7281Z" fill="#BDC6F5"/>
</svg>
